<?xml version="1.0" encoding="UTF-8"?>
<svg width="1232.7" height="1232.7" viewBox="0 0 1232.6875 932.60669" xmlns="http://www.w3.org/2000/svg" xmlns:xlink="http://www.w3.org/1999/xlink">
 <defs>
  <filter id="a">
   <feGaussianBlur stdDeviation="2.45097"/>
  </filter>
  <filter id="b">
   <feGaussianBlur stdDeviation="1.41619"/>
  </filter>
  <filter id="j" x="-.15" y="-.15" width="1.3" height="1.3">
   <feTurbulence baseFrequency="0.01 0.11" numOctaves="2" seed="10"/>
   <feColorMatrix result="result5" values="1 0 0 0 0 0 1 0 0 0 0 0 1 0 0 0 0 0 1.3 0"/>
   <feComposite in="SourceGraphic" in2="result5" operator="out"/>
   <feMorphology operator="dilate" radius="1.3" result="result3"/>
   <feTurbulence baseFrequency="0.08 0.05" numOctaves="3" result="result6" seed="7" type="fractalNoise"/>
   <feGaussianBlur result="result7" stdDeviation=".5"/>
   <feDisplacementMap in="result3" in2="result7" result="result4" scale="3" xChannelSelector="R" yChannelSelector="G"/>
   <feComposite in="result4" in2="result4" k1="1" k2="1" operator="arithmetic" result="result2"/>
   <feBlend in="result2" in2="result4"/>
  </filter>
  <filter id="i" x="-.04249" y="-.42141" width="1.085" height="1.8428">
   <feGaussianBlur stdDeviation="4.34558"/>
  </filter>
  <filter id="c" x="-.50269" y="-.31651" width="2.0054" height="1.633">
   <feGaussianBlur stdDeviation="6.35838"/>
  </filter>
  <filter id="h" x="-.01151" y="-.48391" width="1.023" height="1.9678">
   <feGaussianBlur stdDeviation="2.74805"/>
  </filter>
  <filter id="g" x="-.2952" y="-.19636" width="1.5904" height="1.3927">
   <feGaussianBlur stdDeviation="7.81569"/>
  </filter>
  <linearGradient id="f" x1="-432.26" x2="-163.02" gradientUnits="userSpaceOnUse">
   <stop stop-color="#ceeae9" offset="0"/>
   <stop stop-color="#fff" stop-opacity="0" offset="1"/>
  </linearGradient>
 </defs>
 <g transform="translate(473.38 330.38)">
  <path d="m-400-127.64h471.43a40 40 0 0 1 40 40v605.71a40 40 0 0 1 -40 40h-471.43a40 40 0 0 1 -40 -40v-605.71a40 40 0 0 1 40 -40" fill="#fff" stroke="#000" stroke-width="28.6"/>
  <path d="m-183.8-204.78c247.14-162.86 667.79 50.273 429.71 392.86-246.46 334.29-128.48 261.43-40.242 264.29l88.239 2.8572" fill="none" opacity=".89941" stroke="#000" stroke-width="9.4941"/>
  <g opacity=".68639">
   <path transform="matrix(.42611 0 0 .4929 194.86 172.93)" d="m-605.71-376.21c0 22.091-16.629 40-37.143 40s-37.143-17.909-37.143-40 16.629-40 37.143-40 37.143 17.909 37.143 40z" fill="#0ff" filter="url(#a)" opacity=".33136" stroke="#000" stroke-width="2"/>
   <path transform="matrix(.30012 0 0 .34716 114.75 113.03)" d="m-605.71-376.21c0 22.091-16.629 40-37.143 40s-37.143-17.909-37.143-40 16.629-40 37.143-40 37.143 17.909 37.143 40z" fill="#fff" filter="url(#a)" opacity=".33136"/>
  </g>
  <g transform="matrix(1.065 0 0 1 -19.489 0)" fill="none">
   <path d="m-154.29-204.78c232.07-162.86 614.98 54.559 391.43 397.14-231.43 334.29-108.57 257.14-25.714 260l82.857 2.8572" opacity=".89941" stroke="#000" stroke-width="9.2"/>
   <path d="m-157.35-203.02c236.63-161.93 627.08 54.247 399.13 394.87-235.98 332.38-110.71 255.67-26.22 258.51l84.487 2.8408" opacity=".89941" stroke="#f00" stroke-width="9.2634"/>
  </g>
  <path d="m-400-127.64h471.43a40 40 0 0 1 40 40v605.71a40 40 0 0 1 -40 40h-471.43a40 40 0 0 1 -40 -40v-605.71a40 40 0 0 1 40 -40" fill="#fff" stroke="#000" stroke-width="28.6"/>
  <path d="m99.423 381.1c-94.651 154.12-73.781 74.893-1.3483 77.18" fill="none" filter="url(#g)" stroke="#f00" stroke-width="9.5596"/>
  <path transform="matrix(1 0 0 1.1101 73.143 -704.24)" d="m-105.71 873.08c0 19.33-26.223 35-58.571 35s-58.571-15.67-58.571-35 26.223-35 58.571-35 58.571 15.67 58.571 35z" fill="#ff8080" stroke="#000" stroke-width="13.789"/>
  <path d="m-62.567 38.929c-21 0-39.751 12.74-52.062 32.656-11.698-10.583-26.641-16.938-42.938-16.938-12.02 0-23.302 3.4718-33.094 9.5312-9.4527-5.15-20.319-8.0938-31.906-8.0938-36.293 0-65.719 28.777-65.719 64.281 0 0.64903 0.043 1.2931 0.0625 1.9375-26.823 17.578-44.344 46.63-44.344 79.5 0 53.651 46.686 97.125 104.28 97.125 32.208 0 60.995-13.597 80.125-34.969 9.0628 3.1917 19.185 4.9688 29.875 4.9688 14.336 0 27.652-3.211 38.75-8.7188 7.537 18.671 23.826 31.594 42.688 31.594 26.036 0 47.125-24.624 47.125-55 0-20.72-9.8055-38.778-24.312-48.156 11.51-15.899 18.594-37.436 18.594-61.156 0-48.917-30.043-88.562-67.125-88.562z" fill="#ffd5d5" stroke="#000" stroke-width="13.789"/>
  <path d="m-261.14 160.36s-34.286 21.429-22.857 34.286 24.286 20 24.286 20" fill="#ffd5d5" stroke="#000" stroke-width="8"/>
  <path d="m-238.29 114.65s35.714-1.4286 25.714 18.571l-10 20" fill="#ffd5d5" stroke="#000" stroke-width="8"/>
  <path d="m-132.57 143.22s-28.571 0-21.429 12.857 10 18.571 10 18.571" fill="#ffd5d5" stroke="#000" stroke-width="8"/>
  <path d="m-208.29 244.65s-18.571-34.286 5.7143-25.714 22.857 11.429 22.857 11.429" fill="#ffd5d5" stroke="#000" stroke-width="8"/>
  <path d="m-49.714 113.22s-28.571 8.5714-17.143 24.286 12.857 15.714 12.857 15.714" fill="#ffd5d5" stroke="#000" stroke-width="8"/>
  <path d="m-121.14 296.08s30 38.571 21.429 51.429-24.286 38.571-18.571 51.428 8.5714 15.714 8.5714 15.714 25.714 20 22.857-14.286 20-51.429 22.857-65.714-10-34.286-10-34.286l-34.286 8.5714-1.4286 1.4286" fill="#ff8080" stroke="#000" stroke-width="13.789"/>
  <path d="m-89.714 186.08s30-2.8572 22.857 15.714-7.1429 20-7.1429 20" fill="none" stroke="#000" stroke-width="8"/>
  <path d="m360.46-97.76v247.53c49.069-12.822 140.57 18.257 164.39 1.3968l-36.864 62.456 62.974-7.1085-79.877 73.786 172.05-86.544-92.176-11.361 30.781-32.625c58.359 0 115.29-17.143 175.08 0v-247.53c-141.21-20.203-275.35 24.244-396.35 0z" fill="none" stroke="#000" stroke-width="5"/>
  <path transform="matrix(.54688 0 0 .47475 -379.94 -100.21)" d="m522.86 264.51c0 39.054-20.467 70.714-45.714 70.714s-45.714-31.66-45.714-70.714 20.467-70.714 45.714-70.714 45.714 31.66 45.714 70.714z" fill="#fff" opacity=".69519"/>
  <path transform="translate(254.29 -862.86)" d="m-205.71 908.08c0 52.862-33.259 95.714-74.286 95.714s-74.286-42.853-74.286-95.714 33.259-95.714 74.286-95.714 74.286 42.853 74.286 95.714z" fill="#fff" opacity=".8024"/>
  <path transform="matrix(.50873 0 0 .63364 162.44 -328.75)" d="m-205.71 908.08c0 52.862-33.259 95.714-74.286 95.714s-74.286-42.853-74.286-95.714 33.259-95.714 74.286-95.714 74.286 42.853 74.286 95.714z" fill="#fff" opacity=".8024"/>
  <g opacity=".68639">
   <path transform="matrix(.70161 0 0 .66517 244.09 629.66)" d="m-605.71-376.21c0 22.091-16.629 40-37.143 40s-37.143-17.909-37.143-40 16.629-40 37.143-40 37.143 17.909 37.143 40z" fill="#0ff" filter="url(#a)" opacity=".33136" stroke="#000" stroke-width="2"/>
   <path transform="matrix(.49417 0 0 .4685 112.2 548.83)" d="m-605.71-376.21c0 22.091-16.629 40-37.143 40s-37.143-17.909-37.143-40 16.629-40 37.143-40 37.143 17.909 37.143 40z" fill="#fff" filter="url(#a)" opacity=".33136"/>
  </g>
  <g opacity=".68639">
   <path transform="matrix(.44187 0 0 .41891 8.5364 162.85)" d="m-605.71-376.21c0 22.091-16.629 40-37.143 40s-37.143-17.909-37.143-40 16.629-40 37.143-40 37.143 17.909 37.143 40z" fill="#0ff" filter="url(#a)" opacity=".33136" stroke="#000" stroke-width="2"/>
   <path transform="matrix(.31122 0 0 .29505 -74.528 111.95)" d="m-605.71-376.21c0 22.091-16.629 40-37.143 40s-37.143-17.909-37.143-40 16.629-40 37.143-40 37.143 17.909 37.143 40z" fill="#fff" filter="url(#a)" opacity=".33136"/>
  </g>
  <path d="m-417.14 544.45s94.286-47.359 322.86-35.244c205.13 10.873 175 35.661 175 35.661" fill="#333" opacity=".89941"/>
  <g transform="matrix(1 0 0 .68027 0 -35.115)">
   <path d="m-453.99-156.21h584.32a12.372 12.372 0 0 1 12.372 12.372v40.404a12.372 12.372 0 0 1 -12.372 12.372h-584.32a12.372 12.372 0 0 1 -12.372 -12.372v-40.404a12.372 12.372 0 0 1 12.372 -12.372" fill="#333" stroke="#000" stroke-width="14.052"/>
   <path transform="matrix(1.0351 0 0 1.5566 6.0056 79.077)" d="m-445.66-142.07h567.66a2.5883 2.5883 0 0 1 2.5883 2.5883v8.4528a2.5883 2.5883 0 0 1 -2.5883 2.5883h-567.66a2.5883 2.5883 0 0 1 -2.5883 -2.5883v-8.4528a2.5883 2.5883 0 0 1 2.5883 -2.5883" fill="#fff" filter="url(#h)"/>
  </g>
  <path d="m-170.31-203.65s-14.934-159.37 20.365-114.24 74.671 263.74 118.12 241.17c388.43-334.11 61.19 297.08 195.5 537.34 43.445 52.183 108.61-12.693 108.61-12.693" fill="none" opacity=".89941" stroke="#ffea00" stroke-width="8.9114"/>
  <path d="m-168.43-198.12s-14.627-158.83 19.945-113.85 73.133 262.84 115.68 240.35c380.43-332.97 59.93 296.07 191.48 535.51 42.55 52.005 106.38-12.65 106.38-12.65" fill="none" opacity=".89941" stroke="#000" stroke-width="8.8041"/>
  <path d="m-432.25-96.938v522.73c-0.44908 2.1545-0.69825 4.356-0.69825 6.6184v73.497c0 21.55 21.214 38.894 47.572 38.894h461.36c26.358 0 47.572-17.344 47.572-38.894v-73.497c0-13.184-7.9268-24.794-20.128-31.822v-497.52h-535.68z" fill="url(#f)"/>
  <g transform="matrix(0 .52167 -1 0 109.62 541.52)">
   <path d="m-193.34-223.35h45.257a12.372 12.372 0 0 1 12.372 12.372v45.257a12.372 12.372 0 0 1 -12.372 12.372h-45.257a12.372 12.372 0 0 1 -12.372 -12.372v-45.257a12.372 12.372 0 0 1 12.372 -12.372" fill="#4d4d4d"/>
   <path d="m-184.69-214.78h13.315a8.5213 8.5213 0 0 1 8.5213 8.5213v31.172a8.5213 8.5213 0 0 1 -8.5213 8.5213h-13.315a8.5213 8.5213 0 0 1 -8.5213 -8.5213v-31.172a8.5213 8.5213 0 0 1 8.5213 -8.5213" fill="#fff" filter="url(#c)" opacity=".89941"/>
   <path transform="matrix(.9591 0 0 .93585 -8.5447 -14.514)" d="m-192.27-222.28h45.257a12.372 12.372 0 0 1 12.372 12.372v45.257a12.372 12.372 0 0 1 -12.372 12.372h-45.257a12.372 12.372 0 0 1 -12.372 -12.372v-45.257a12.372 12.372 0 0 1 12.372 -12.372" fill="none" filter="url(#b)" stroke="#000" stroke-width="1.4"/>
   <path d="m-192.72-225.51h42.931a12.103 12.103 0 0 1 12.103 12.103v44.275a12.103 12.103 0 0 1 -12.103 12.103h-42.931a12.103 12.103 0 0 1 -12.103 -12.103v-44.275a12.103 12.103 0 0 1 12.103 -12.103" fill="none" stroke="#000" stroke-width="1.867"/>
  </g>
  <path d="m309.65 311.31h305.26a12.372 12.372 0 0 1 12.372 12.372v233.83a12.372 12.372 0 0 1 -12.372 12.372h-305.26a12.372 12.372 0 0 1 -12.372 -12.372v-233.83a12.372 12.372 0 0 1 12.372 -12.372" fill="#784421" stroke="#000" stroke-width="5"/>
  <path transform="matrix(.97151 0 0 .97002 12.665 12.941)" d="m309.65 311.31h305.26c6.8539 0 12.372 5.5178 12.372 12.372v233.83c0 6.8539-5.5178 12.372-12.372 12.372h-305.26c-6.8539 0-12.372-5.5178-12.372-12.372v-233.83c0-6.8539 5.5178-12.372 12.372-12.372z" fill="#fc0" filter="url(#j)" opacity=".13174"/>
  <g transform="matrix(.79928 .60096 -.60096 .79928 251.22 -227.69)">
   <path d="m399.91 402.23c0 3.7723-3.0581 6.8304-6.8304 6.8304s-6.8304-3.0581-6.8304-6.8304 3.058-6.8304 6.8304-6.8304 6.8304 3.0581 6.8304 6.8304z" fill="#e6e6e6"/>
   <path transform="matrix(1.2105 0 0 1.2105 -82.97 -85.112)" d="m397.5 402.59c0 2.3423-1.8988 4.2411-4.2411 4.2411s-4.2411-1.8988-4.2411-4.2411 1.8988-4.2411 4.2411-4.2411 4.2411 1.8988 4.2411 4.2411z" fill="#fff"/>
   <path d="m392.28 396.51h1.6071v11.429h-1.6071z" fill="#ccc"/>
  </g>
  <g transform="matrix(.79928 .60096 -.60096 .79928 251.22 -9.4758)">
   <path d="m399.91 402.23c0 3.7723-3.0581 6.8304-6.8304 6.8304s-6.8304-3.0581-6.8304-6.8304 3.058-6.8304 6.8304-6.8304 6.8304 3.0581 6.8304 6.8304z" fill="#e6e6e6"/>
   <path transform="matrix(1.2105 0 0 1.2105 -82.97 -85.112)" d="m397.5 402.59c0 2.3423-1.8988 4.2411-4.2411 4.2411s-4.2411-1.8988-4.2411-4.2411 1.8988-4.2411 4.2411-4.2411 4.2411 1.8988 4.2411 4.2411z" fill="#fff"/>
   <path d="m392.28 396.51h1.6071v11.429h-1.6071z" fill="#ccc"/>
  </g>
  <g transform="matrix(.82083 -.57117 .57117 .82083 -228.72 442.6)">
   <path d="m399.91 402.23c0 3.7723-3.0581 6.8304-6.8304 6.8304s-6.8304-3.0581-6.8304-6.8304 3.058-6.8304 6.8304-6.8304 6.8304 3.0581 6.8304 6.8304z" fill="#e6e6e6"/>
   <path transform="matrix(1.2105 0 0 1.2105 -82.97 -85.112)" d="m397.5 402.59c0 2.3423-1.8988 4.2411-4.2411 4.2411s-4.2411-1.8988-4.2411-4.2411 1.8988-4.2411 4.2411-4.2411 4.2411 1.8988 4.2411 4.2411z" fill="#fff"/>
   <path d="m392.28 396.51h1.6071v11.429h-1.6071z" fill="#ccc"/>
  </g>
  <g transform="matrix(.80971 -.58683 .58683 .80971 52.355 453.23)">
   <path d="m399.91 402.23c0 3.7723-3.0581 6.8304-6.8304 6.8304s-6.8304-3.0581-6.8304-6.8304 3.058-6.8304 6.8304-6.8304 6.8304 3.0581 6.8304 6.8304z" fill="#e6e6e6"/>
   <path transform="matrix(1.2105 0 0 1.2105 -82.97 -85.112)" d="m397.5 402.59c0 2.3423-1.8988 4.2411-4.2411 4.2411s-4.2411-1.8988-4.2411-4.2411 1.8988-4.2411 4.2411-4.2411 4.2411 1.8988 4.2411 4.2411z" fill="#fff"/>
   <path d="m392.28 396.51h1.6071v11.429h-1.6071z" fill="#ccc"/>
  </g>
  <g transform="matrix(.63506 -.77247 .77247 .63506 46.34 378.23)">
   <path d="m399.91 402.23c0 3.7723-3.0581 6.8304-6.8304 6.8304s-6.8304-3.0581-6.8304-6.8304 3.058-6.8304 6.8304-6.8304 6.8304 3.0581 6.8304 6.8304z" fill="#e6e6e6"/>
   <path transform="matrix(1.2105 0 0 1.2105 -82.97 -85.112)" d="m397.5 402.59c0 2.3423-1.8988 4.2411-4.2411 4.2411s-4.2411-1.8988-4.2411-4.2411 1.8988-4.2411 4.2411-4.2411 4.2411 1.8988 4.2411 4.2411z" fill="#fff"/>
   <path d="m392.28 396.51h1.6071v11.429h-1.6071z" fill="#ccc"/>
  </g>
  <path transform="matrix(1.2407 0 0 1.6977 -114.22 -225.15)" d="m339.92 333.13h245.47v24.749h-245.47z" fill="#fff" filter="url(#i)" opacity=".13174"/>
  <path transform="matrix(0 -1 1 0 42.055 855.59)" d="m480 420.22c0 35.899-29.101 65-65 65s-65-29.101-65-65 29.101-65 65-65 65 29.101 65 65z" fill="#6c5353" stroke="#000" stroke-width="7.2"/>
  <g transform="translate(-71.012 -74.557)">
   <path transform="translate(231.86 124.57)" d="m276.43 350.58c0 3.3532-2.5584 6.0714-5.7143 6.0714s-5.7143-2.7183-5.7143-6.0714 2.5584-6.0714 5.7143-6.0714 5.7143 2.7183 5.7143 6.0714z" fill="#fff"/>
   <path transform="translate(251.86 124.57)" d="m276.43 350.58c0 3.3532-2.5584 6.0714-5.7143 6.0714s-5.7143-2.7183-5.7143-6.0714 2.5584-6.0714 5.7143-6.0714 5.7143 2.7183 5.7143 6.0714z" fill="#fff"/>
   <path transform="translate(271.86 124.57)" d="m276.43 350.58c0 3.3532-2.5584 6.0714-5.7143 6.0714s-5.7143-2.7183-5.7143-6.0714 2.5584-6.0714 5.7143-6.0714 5.7143 2.7183 5.7143 6.0714z" fill="#fff"/>
   <path transform="translate(291.86 124.57)" d="m276.43 350.58c0 3.3532-2.5584 6.0714-5.7143 6.0714s-5.7143-2.7183-5.7143-6.0714 2.5584-6.0714 5.7143-6.0714 5.7143 2.7183 5.7143 6.0714z" fill="#fff"/>
   <path transform="translate(231.86 150.57)" d="m276.43 350.58c0 3.3532-2.5584 6.0714-5.7143 6.0714s-5.7143-2.7183-5.7143-6.0714 2.5584-6.0714 5.7143-6.0714 5.7143 2.7183 5.7143 6.0714z" fill="#fff"/>
   <path transform="translate(251.86 150.57)" d="m276.43 350.58c0 3.3532-2.5584 6.0714-5.7143 6.0714s-5.7143-2.7183-5.7143-6.0714 2.5584-6.0714 5.7143-6.0714 5.7143 2.7183 5.7143 6.0714z" fill="#fff"/>
   <path transform="translate(271.86 150.57)" d="m276.43 350.58c0 3.3532-2.5584 6.0714-5.7143 6.0714s-5.7143-2.7183-5.7143-6.0714 2.5584-6.0714 5.7143-6.0714 5.7143 2.7183 5.7143 6.0714z" fill="#fff"/>
   <path transform="translate(291.86 150.57)" d="m276.43 350.58c0 3.3532-2.5584 6.0714-5.7143 6.0714s-5.7143-2.7183-5.7143-6.0714 2.5584-6.0714 5.7143-6.0714 5.7143 2.7183 5.7143 6.0714z" fill="#fff"/>
   <path transform="translate(231.86 178.57)" d="m276.43 350.58c0 3.3532-2.5584 6.0714-5.7143 6.0714s-5.7143-2.7183-5.7143-6.0714 2.5584-6.0714 5.7143-6.0714 5.7143 2.7183 5.7143 6.0714z" fill="#fff"/>
   <path transform="translate(251.86 178.57)" d="m276.43 350.58c0 3.3532-2.5584 6.0714-5.7143 6.0714s-5.7143-2.7183-5.7143-6.0714 2.5584-6.0714 5.7143-6.0714 5.7143 2.7183 5.7143 6.0714z" fill="#fff"/>
   <path transform="translate(271.86 178.57)" d="m276.43 350.58c0 3.3532-2.5584 6.0714-5.7143 6.0714s-5.7143-2.7183-5.7143-6.0714 2.5584-6.0714 5.7143-6.0714 5.7143 2.7183 5.7143 6.0714z" fill="#fff"/>
   <path transform="translate(291.86 178.57)" d="m276.43 350.58c0 3.3532-2.5584 6.0714-5.7143 6.0714s-5.7143-2.7183-5.7143-6.0714 2.5584-6.0714 5.7143-6.0714 5.7143 2.7183 5.7143 6.0714z" fill="#fff"/>
   <path transform="translate(231.86 204.57)" d="m276.43 350.58c0 3.3532-2.5584 6.0714-5.7143 6.0714s-5.7143-2.7183-5.7143-6.0714 2.5584-6.0714 5.7143-6.0714 5.7143 2.7183 5.7143 6.0714z" fill="#fff"/>
   <path transform="translate(251.86 204.57)" d="m276.43 350.58c0 3.3532-2.5584 6.0714-5.7143 6.0714s-5.7143-2.7183-5.7143-6.0714 2.5584-6.0714 5.7143-6.0714 5.7143 2.7183 5.7143 6.0714z" fill="#fff"/>
   <path transform="translate(271.86 204.57)" d="m276.43 350.58c0 3.3532-2.5584 6.0714-5.7143 6.0714s-5.7143-2.7183-5.7143-6.0714 2.5584-6.0714 5.7143-6.0714 5.7143 2.7183 5.7143 6.0714z" fill="#fff"/>
   <path transform="translate(291.86 204.57)" d="m276.43 350.58c0 3.3532-2.5584 6.0714-5.7143 6.0714s-5.7143-2.7183-5.7143-6.0714 2.5584-6.0714 5.7143-6.0714 5.7143 2.7183 5.7143 6.0714z" fill="#fff"/>
   <path id="e" transform="translate(212.57 150.57)" d="m276.43 350.58c0 3.3532-2.5584 6.0714-5.7143 6.0714s-5.7143-2.7183-5.7143-6.0714 2.5584-6.0714 5.7143-6.0714 5.7143 2.7183 5.7143 6.0714z" fill="#fff"/>
   <path id="d" transform="translate(212.57 178.57)" d="m276.43 350.58c0 3.3532-2.5584 6.0714-5.7143 6.0714s-5.7143-2.7183-5.7143-6.0714 2.5584-6.0714 5.7143-6.0714 5.7143 2.7183 5.7143 6.0714z" fill="#fff"/>
   <use transform="translate(100)" width="744.09448" height="1052.3622" xlink:href="#e"/>
   <use transform="translate(100)" width="744.09448" height="1052.3622" xlink:href="#d"/>
  </g>
  <g transform="matrix(1.0385 0 0 1 10.236 20)">
   <path d="m-193.34-223.35h45.257a12.372 12.372 0 0 1 12.372 12.372v45.257a12.372 12.372 0 0 1 -12.372 12.372h-45.257a12.372 12.372 0 0 1 -12.372 -12.372v-45.257a12.372 12.372 0 0 1 12.372 -12.372" fill="#4d4d4d"/>
   <path d="m-184.69-214.78h13.315a8.5213 8.5213 0 0 1 8.5213 8.5213v31.172a8.5213 8.5213 0 0 1 -8.5213 8.5213h-13.315a8.5213 8.5213 0 0 1 -8.5213 -8.5213v-31.172a8.5213 8.5213 0 0 1 8.5213 -8.5213" fill="#fff" filter="url(#c)" opacity=".89941"/>
   <path transform="matrix(.9591 0 0 .93585 -8.5447 -14.514)" d="m-192.27-222.28h45.257a12.372 12.372 0 0 1 12.372 12.372v45.257a12.372 12.372 0 0 1 -12.372 12.372h-45.257a12.372 12.372 0 0 1 -12.372 -12.372v-45.257a12.372 12.372 0 0 1 12.372 -12.372" fill="none" filter="url(#b)" stroke="#000" stroke-width="1.4"/>
   <path d="m-192.72-225.51h42.931a12.103 12.103 0 0 1 12.103 12.103v44.275a12.103 12.103 0 0 1 -12.103 12.103h-42.931a12.103 12.103 0 0 1 -12.103 -12.103v-44.275a12.103 12.103 0 0 1 12.103 -12.103" fill="none" stroke="#000" stroke-width="1.867"/>
  </g>
 </g>
</svg>
